<?xml version="1.0" standalone="no"?>
<!DOCTYPE svg PUBLIC "-//W3C//DTD SVG 20010904//EN"
 "http://www.w3.org/TR/2001/REC-SVG-20010904/DTD/svg10.dtd">
<svg version="1.0" xmlns="http://www.w3.org/2000/svg"
 width="887.000000pt" height="482.000000pt" viewBox="0 0 887.000000 482.000000"
 preserveAspectRatio="xMidYMid meet">

<g transform="translate(0.000000,482.000000) scale(0.100000,-0.100000)"
fill="#000000" stroke="none">
<path d="M2585 4424 c-48 -18 -90 -56 -116 -106 -18 -36 -19 -84 -19 -1713 0
-1639 0 -1677 19 -1714 26 -50 81 -97 128 -110 51 -15 2643 -15 2694 -1 61 17
102 52 132 109 l27 55 0 408 0 408 129 198 c71 108 207 316 303 462 95 145
232 353 303 462 410 624 389 588 393 649 7 98 -9 116 -222 253 -143 92 -151
96 -205 96 -104 0 -66 48 -554 -699 l-147 -224 0 655 0 654 -27 55 c-30 57
-71 92 -132 109 -23 6 -499 10 -1351 9 -1124 0 -1321 -3 -1355 -15z m2712
-128 c26 -23 28 -30 34 -128 4 -56 7 -390 8 -740 l1 -638 -121 -182 c-150
-226 -139 -212 -154 -192 -13 18 -35 11 -35 -11 0 -8 -7 -11 -21 -8 -20 5 -19
6 3 17 29 14 36 66 13 90 -15 15 -99 16 -924 16 -726 0 -911 -3 -925 -13 -12
-9 -17 -23 -14 -47 2 -30 8 -36 35 -44 24 -7 33 -16 35 -35 l3 -26 765 -5 765
-5 -755 -5 -755 -5 773 -3 772 -2 39 40 c36 37 43 40 92 40 l54 -1 -27 -22
c-14 -12 -36 -30 -49 -39 -23 -18 -22 -18 49 -18 40 0 72 -2 72 -5 0 -2 -34
-57 -77 -122 -42 -65 -80 -133 -84 -153 -4 -19 -31 -170 -59 -335 -28 -165
-53 -308 -56 -317 -7 -22 11 -55 37 -69 25 -13 46 -1 336 193 106 70 197 128
203 128 15 0 14 -664 -1 -693 -6 -12 -21 -32 -32 -44 l-20 -23 -1324 0 c-889
0 -1331 3 -1344 10 -52 28 -49 -59 -49 1705 0 1756 -2 1675 47 1704 12 7 461
10 1340 11 l1322 0 28 -24z m896 -523 l32 -16 -28 -8 c-42 -11 -55 -25 -124
-131 -35 -54 -67 -98 -71 -98 -10 1 -42 26 -42 33 0 14 141 217 157 226 25 15
39 13 76 -6z m-137 -411 c82 -54 166 -108 187 -121 20 -12 37 -25 37 -28 0
-10 -35 -63 -41 -63 -4 0 -74 44 -156 98 -81 54 -153 101 -159 105 -8 4 -52
-55 -122 -161 -60 -92 -248 -378 -417 -637 -169 -258 -311 -474 -316 -479 -11
-12 -61 14 -57 30 3 11 93 149 473 727 77 118 201 306 275 420 74 114 138 207
141 207 3 0 73 -44 155 -98z m-2354 -977 c-4 -21 -10 -25 -39 -25 -26 0 -36 5
-40 20 -5 19 -16 20 -197 23 l-191 2 236 3 236 2 -5 -25z m1340 -37 c-8 -8 -9
-4 -5 13 4 13 8 18 11 10 2 -7 -1 -18 -6 -23z m97 -493 l164 -107 -153 -100
c-180 -118 -280 -179 -280 -172 0 3 18 110 40 239 22 129 40 239 40 246 0 17
11 11 189 -106z"/>
<path d="M3120 3480 c-11 -11 -20 -28 -20 -38 0 -22 30 -52 52 -52 9 0 18 -8
22 -17 3 -10 9 -25 12 -33 5 -13 4 -13 -6 0 -10 13 -11 13 -7 0 3 -13 56 -15
380 -18 331 -2 377 0 377 13 0 8 8 15 18 15 10 0 24 6 30 12 10 10 15 10 21
-1 7 -11 10 -11 15 0 3 8 4 2 2 -13 l-3 -28 273 0 274 0 6 25 c4 16 13 25 26
25 10 0 16 5 13 10 -4 6 14 10 46 10 l52 0 -21 -23 c-26 -27 -28 -42 -7 -33 8
3 15 1 15 -5 0 -6 61 -8 168 -7 l167 3 3 28 c2 15 -2 27 -8 27 -6 0 -8 5 -5
10 3 6 -3 10 -14 10 -12 0 -21 -4 -21 -10 0 -5 -10 -10 -22 -9 -15 0 -18 2 -8
6 40 14 53 69 22 96 -17 16 -96 17 -925 17 -894 0 -907 0 -927 -20z"/>
<path d="M3171 3006 c-21 -25 -9 -69 22 -84 15 -7 27 -20 27 -28 0 -7 5 -14
11 -14 6 0 9 -6 6 -14 -8 -20 24 -26 123 -24 l85 2 -95 6 -95 6 93 2 c93 2
169 23 156 43 -3 5 122 9 295 9 194 0 301 -4 301 -10 0 -5 7 -10 16 -10 8 0
13 3 11 8 -3 4 190 5 428 3 396 -3 435 -2 459 14 14 10 26 13 26 7 0 -5 -7
-13 -16 -16 -8 -3 -12 -10 -9 -16 4 -7 -126 -10 -389 -10 -257 0 -396 4 -396
10 0 6 -5 10 -11 10 -5 0 -7 -4 -4 -10 3 -6 -4 -10 -17 -11 -22 0 -22 -1 -3
-9 14 -6 15 -9 5 -10 -12 0 -12 -3 2 -11 28 -16 853 -8 870 9 10 10 10 15 -2
22 -10 7 -11 10 -2 10 20 0 14 41 -8 47 -14 4 -20 14 -20 32 0 15 -5 32 -12
39 -9 9 -229 12 -929 12 -785 0 -918 -2 -928 -14z m1899 -86 c0 -5 -5 -10 -11
-10 -5 0 -7 5 -4 10 3 6 8 10 11 10 2 0 4 -4 4 -10z"/>
<path d="M3713 2893 c70 -2 184 -2 255 0 70 1 12 3 -128 3 -140 0 -198 -2
-127 -3z"/>
<path d="M3698 2873 c79 -2 205 -2 280 0 75 1 11 3 -143 3 -154 0 -216 -2
-137 -3z"/>
<path d="M3703 2853 c71 -2 183 -2 250 0 67 1 10 3 -128 3 -137 0 -192 -2
-122 -3z"/>
<path d="M4155 2850 c3 -5 8 -10 11 -10 2 0 4 5 4 10 0 6 -5 10 -11 10 -5 0
-7 -4 -4 -10z"/>
</g>
</svg>
